<svg xmlns="http://www.w3.org/2000/svg" fill="none" viewBox="0 0 170.08321 65.442802">
  <g clip-path="url(#a)" transform="translate(0 -.418701)">
    <path fill="#ffca01" d="M35.1435 7.70337v5.25393h12.4128c13.3129 1.7416 15.7619 12.378 15.3224 17.4784-.3517 10.2652-9.901 14.7363-14.527 15.1759l-22.4075-.0226C11.7631 44.0757 7.78516 33.1487 7.78516 27.4843c0-14.3511 11.63834-19.55066 17.79234-19.78093Z"/>
    <g clip-path="url(#b)">
      <path fill="#3e4095" d="M37.343.418701H0l13.0784.005547c7.6975.005546 12.7045.027732 12.1798.055464-2.1379.110929-4.5493.549098-6.5867 1.198038C8.76919 4.83368 1.61317 13.3752.312587 23.6029c-.30700507 2.4072-.2511859 5.2248.161876 7.6319.558187 3.2669 1.702487 6.3507 3.410547 9.1794C7.904 47.07 14.6972 51.6791 22.3277 52.9381c1.8032.2996 1.8197.2996 6.7603.3206h.0002l.2783.0011 4.8841.0222 1.5351-2.6068c.8428-1.4366 1.5406-2.6124 1.5573-2.6124.0168 0 2.1156 3.5497 4.6609 7.8871l4.633 7.887.0168-5.2691.0111-5.2747 1.0494-.0333c6.2406-.1941 12.5203-3.1504 16.7514-7.887 2.9305-3.278 4.8283-7.044 5.6712-11.2594 1.362-6.8221-.3628-13.8827-4.7335-19.3571-.6977-.8763-1.6634-1.9191-2.4114-2.6013-3.4719-3.17811-7.6025-5.24694-12.0848-6.04563l-.0973-.01732c-.4116-.07334-.726-.12935-1.0422-.1724-1.0219-.13915-2.0622-.14289-6.4654-.15871l-.2768-.001-5.6824-.02218Zm0 5.319059v5.27464h5.0684c3.0087 0 5.3363.0222 5.7326.0611 3.2766.2773 6.302 1.3422 8.9869 3.1614 1.7137 1.1592 3.4999 2.8953 4.7168 4.5925 1.8699 2.6124 3.0477 5.7794 3.3547 9.0075.0837.9151.0335 3.3445-.0837 4.1432-.5247 3.472-1.803 6.4283-3.9186 9.0684-.6028.7488-2.1546 2.3018-2.8691 2.862-2.7407 2.1631-5.554 3.3778-9.1543 3.9491-.7472.1163-.8093.1165-11.9659.1386h-.0352c-7.7924.0111-11.4988 0-12.0681-.0443-1.0997-.0777-2.3891-.2884-3.4887-.5547-5.1689-1.2701-9.6567-4.4094-12.62633-8.8466-.65308-.9706-.92102-1.4421-1.44572-2.5236-1.1108-2.2852-1.74156-4.4816-2.02623-7.0995-.0949-.8209-.0949-3.278-.00558-4.1044.29584-2.69.98799-5.0583 2.1602-7.3879C10.4773 11.8777 15.6126 7.80104 21.6578 6.33123c.8094-.19413 1.2895-.28287 2.4338-.46036.5358-.07765 1.3954-.09429 6.9327-.11093Z"/>
    </g>
  </g>
  <g clip-path="url(#c)" transform="translate(0 -.418701)">
    <path fill="#3e4095" d="M88.5687 6.67918c-1.1345 1.50774-2.0634 2.76184-2.0634 2.77594 0 .02113 1.7656.05636 3.9211.07045 3.7367.02114 3.9423.03523 4.623.18319 1.5245.33814 2.7511.84544 3.9707 1.65564 2.4389 1.6205 4.0699 4.0301 4.7299 6.9821.134.5989.156.923.156 2.1489 0 1.2259-.022 1.55-.156 2.1559-.22 1.0005-.461 1.7051-.901 2.6139-1.361 2.8323-3.8856 4.953-6.9133 5.8196-1.4252.4086-1.5741.4227-6.6509.465l-4.701.0423 4.1196 5.4603c2.2619 3.0013 4.155 5.4813 4.2047 5.5095.0851.0564 8.2749.0705 8.2749.0141 0-.0141-.986-1.3457-2.1983-2.952-1.2054-1.5994-2.1981-2.9451-2.1981-2.9803 0-.0423.1205-.0916.2694-.1198 1.014-.1831 3.304-1.1625 4.609-1.9656 2.552-1.5712 4.821-4.0724 6.147-6.7708 1.17-2.3743 1.688-4.6007 1.695-7.2216 0-1.4514-.071-2.1912-.354-3.5439-1.114-5.2841-5.063-9.90599-10.1683-11.89282-2.1981-.85956-4.1409-1.18365-7.0268-1.19069H90.632ZM120.965 39.3703l-2.254.0212c-1.241.014-2.312.014-2.376 0-.113-.0212-.12-.768-.12-10.2372V18.9454h4.75zm39.473-21.7706c2.135.4509 3.737 1.6134 4.673 3.3889l.206.3875.021-1.6416.014-1.6346h4.68v20.5025h-4.68v-1.3035c0-.7186-.021-1.3034-.049-1.2963-.036 0-.213.2113-.412.4579-1.134 1.4725-2.843 2.4871-4.743 2.8112-.823.1409-2.588.1409-3.418 0-3.73-.6341-6.296-3.248-7.218-7.3696-.255-1.1484-.348-2.0925-.34-3.5862 0-2.3954.361-4.1357 1.212-5.883.652-1.3316 1.829-2.7336 2.936-3.5157.971-.6834 2.283-1.2118 3.382-1.3738.166-.0242.341-.0507.48-.0715v-.0001l.002-.0002c.102-.0155.184-.0279.227-.0339.439-.0775 2.403.0282 3.027.162zm-41.16-10.34278c1.489.31705 2.446 1.74728 2.205 3.30438-.156.9793-.73 1.7543-1.631 2.1982-.454.2184-.517.2325-1.262.2325-.702 0-.822-.0212-1.191-.1903-.567-.2677-1.206-.8877-1.489-1.4584-.213-.4368-.227-.5073-.227-1.24 0-.69046.021-.81728.191-1.1766.1-.21841.327-.54955.497-.73273.773-.83842 1.794-1.16956 2.907-.93705zm13.139 20.12898.567-.5354c.312-.2889 2.248-2.1912 4.304-4.2203l3.729-3.6848h5.822l-1.362 1.3175-.594.5767-.001.0016c-2.114 2.0524-3.398 3.2991-5.29 5.1145-1.163 1.1273-2.021 2.008-2.006 2.0573.021.0493.765.9088 1.666 1.9023 5.913 6.6016 8.431 9.4268 8.409 9.448-.007.007-1.368.0211-3.02.0211h-3.007l-.17-.1973-.297-.3385c-.668-.7627-2.376-2.7105-4.312-4.9245l-4.438-5.0586-.071 10.5471-.178-.0141c-.056 0-.412-.0022-.923-.0055-.395-.0024-.882-.0055-1.395-.0086l-2.149-.007V5.98168h4.68z"/>
    <path fill="#fff" d="M154.709 24.8848c.709-1.7191 2.127-2.8957 3.886-3.2269.376-.0704.837-.0916 1.439-.0704 1.645.0563 2.624.4438 3.616 1.4373 1.092 1.092 1.61 2.3602 1.773 4.4034.277 3.3396-1.007 6.1578-3.325 7.2991-1.411.6975-3.539.6764-5.042-.0493-.744-.3593-1.694-1.3034-2.106-2.0995-.546-1.0569-.794-2.0996-.851-3.6285-.063-1.6204.135-2.9168.61-4.0652z"/>
    <path fill="#3e4095" d="M95.1487 2.00097c3.3822.42978 6.3393 1.63455 9.1543 3.72707.872.64819 2.807 2.56456 3.446 3.42412 2.155 2.86044 3.375 5.86894 3.786 9.33524.128 1.0287.106 3.2058-.036 4.2978-.808 6.2564-4.637 11.6181-10.295 14.4222-.674.3311-.993.5284-.95.5777.02.0297.611.8121 1.452 1.9233l1.171 1.5501 2.56 3.403H91.7878L80.3507 29.4784l6.814-.0422c6.6084-.0353 6.8424-.0423 7.4806-.1832.9501-.2184 1.3046-.3453 2.1767-.768 4.432-2.1489 6.282-7.5528 4.077-11.928-.822-1.6275-2.1696-3.0084-3.765-3.875-.709-.3805-1.2834-.606-2.1555-.8385l-.709-.1831-6.0128-.0282c-3.3113-.0071-6.0057-.0423-5.9915-.0775.0141-.0353 1.6662-2.2405 3.6729-4.9037l3.6516-4.84025 2.3399.03522c1.4819.02818 2.666.08454 3.2191.155z"/>
    <path fill="#ffca01" d="M88.5923 6.6513c-1.1345 1.51738-2.0633 2.77949-2.0633 2.79367 0 .02128 1.7655.05673 3.921.07091 3.7367.02127 3.9424.03545 4.6231.18435 1.5244.34037 2.7511.85087 3.9707 1.66627 2.4392 1.6308 4.0702 4.0558 4.7292 7.0267.135.6027.156.9289.156 2.1627 0 1.2337-.021 1.5599-.156 2.1697-.22 1.0068-.461 1.7159-.9 2.6305-1.362 2.8504-3.886 4.9847-6.9136 5.8568-1.4252.4113-1.5741.4255-6.6509.468l-4.7011.0426 4.1196 5.4951c2.2619 3.0206 4.1551 5.5165 4.2047 5.5448.0851.0568 8.2743.0709 8.2743.0142 0-.0142-.985-1.3543-2.1977-2.9709-1.2054-1.6096-2.198-2.9639-2.198-2.9993 0-.0426.1205-.0922.2694-.1206 1.0139-.1843 3.3043-1.1699 4.6093-1.9782 2.552-1.5812 4.821-4.0984 6.147-6.814 1.17-2.3895 1.688-4.6302 1.695-7.2678 0-1.4607-.071-2.2052-.355-3.5666-1.113-5.3179-5.062-9.96928-10.1677-11.96882-2.198-.86504-4.1409-1.19121-7.0267-1.1983h-1.3259z"/>
    <path fill="#3e4095" d="M92.7639 52.2553c-.4691-.4899-1.0163-.8704-1.6418-1.1415-.6151-.2814-1.2666-.4222-1.9546-.4222-.6567 0-1.277.1356-1.8608.4066-.5733.2606-1.0737.615-1.5011 1.0633-.4274.4482-.7662.9695-1.0164 1.5637-.2502.5837-.3753 1.1988-.3753 1.8451 0 .6463.1251 1.2666.3753 1.8608.2502.5837.589 1.0997 1.0164 1.548.4378.4482.9486.8079 1.5324 1.0789.5838.2606 1.204.3909 1.8608.3909.6671 0 1.3082-.1407 1.9233-.4221.6255-.2919 1.1727-.6724 1.6418-1.1415v1.6262c-.5108.3648-1.0685.6515-1.6731.86-.6046.1981-1.2197.2971-1.8451.2971-.834 0-1.6262-.1564-2.3768-.4691-.7401-.3232-1.3917-.7558-1.9546-1.2978-.5525-.5525-.9955-1.1936-1.3291-1.9234-.3232-.7401-.4848-1.5271-.4848-2.3611 0-.8444.1616-1.6366.4848-2.3768.3231-.7505.761-1.4021 1.3135-1.9546.5629-.5629 1.2144-1.0059 1.9546-1.3291.7505-.3232 1.548-.4847 2.3924-.4847 1.3135 0 2.4862.3857 3.5182 1.1571zm5.9701 2.8146c-.3857 0-.7402.073-1.0633.2189-.3232.146-.5994.344-.8288.5942-.2293.2398-.4065.5265-.5316.86-.1251.3232-.1876.6724-.1876 1.0477 0 .3753.0625.7297.1876 1.0633.1251.3232.3023.6098.5316.86.2294.2502.5056.4483.8288.5942.3231.1355.6776.2033 1.0633.2033.3857 0 .7401-.0678 1.0633-.2033.3227-.1459.5997-.344.8287-.5942.229-.2502.407-.5368.532-.86.125-.3336.187-.688.187-1.0633 0-.3753-.062-.7245-.187-1.0477-.125-.3335-.303-.6202-.532-.86-.229-.2502-.506-.4482-.8287-.5942-.3232-.1459-.6776-.2189-1.0633-.2189zm0 6.5987c-.5317 0-1.032-.099-1.5011-.2971-.4691-.1981-.8809-.4691-1.2353-.8131-.344-.3544-.6203-.7662-.8288-1.2353-.1981-.4691-.2971-.9747-.2971-1.5168 0-.542.099-1.0476.2971-1.5167.1981-.4691.4691-.8809.8131-1.2353.3545-.3545.7662-.6307 1.2353-.8288.4691-.2085.9747-.3127 1.5168-.3127.5421 0 1.0476.1042 1.517.3127.469.1981.875.4743 1.219.8288.355.3544.631.7662.829 1.2353.198.4691.297.9747.297 1.5167 0 .5421-.104 1.0477-.312 1.5168-.199.4691-.475.8809-.829 1.2353-.344.344-.751.615-1.22.8131-.469.1981-.9694.2971-1.501.2971zm7.373-6.7551h.031c.198-.3023.449-.542.751-.7192.302-.1877.641-.2815 1.016-.2815.438 0 .834.1095 1.189.3284.365.2085.646.5056.844.8913.219-.4066.526-.7089.923-.907.406-.2085.834-.3127 1.282-.3127.469 0 .855.0886 1.157.2658.302.1772.542.4118.719.7037.177.2814.297.6098.36.9851.073.3648.109.7401.109 1.1258v4.4721h-1.251v-4.2688c0-.2398-.01-.4847-.031-.7349-.021-.2502-.078-.4795-.172-.688-.083-.2085-.214-.3753-.391-.5004-.177-.1355-.427-.2033-.75-.2033-.365 0-.652.0782-.86.2346-.209.1563-.37.3596-.485.6098-.104.2398-.172.5056-.203.7975-.032.2919-.047.5785-.047.86v3.8935h-1.251v-4.175c0-.2293-.016-.4743-.047-.7349-.021-.2606-.078-.5004-.172-.7193-.084-.2189-.214-.4013-.391-.5473-.167-.1459-.401-.2189-.704-.2189-.365 0-.656.0834-.875.2502-.219.1668-.386.3805-.501.6411-.104.2502-.172.5264-.203.8288-.031.3023-.047.5941-.047.8756v3.7997h-1.251v-7.3492h1.251zm12.159-4.4564c.24 0 .448.0886.625.2658.178.1772.266.3857.266.6255 0 .2502-.088.4639-.266.6411-.177.1668-.385.2502-.625.2502s-.448-.0834-.626-.2502c-.177-.1772-.265-.3909-.265-.6411 0-.2398.088-.4483.265-.6255.178-.1772.386-.2658.626-.2658zm.625 11.0082h-1.251v-7.3492h1.251zm8.612-5.1601h-.032c-.291-.3648-.62-.6619-.985-.8913-.365-.2293-.797-.344-1.298-.344-.375 0-.724.073-1.047.2189-.313.146-.584.344-.813.5942-.23.2502-.412.5421-.548.8757-.125.3231-.187.6671-.187 1.032s.057.7141.172 1.0477c.125.3231.297.6098.516.86.219.2502.485.4482.797.5942.313.1459.662.2189 1.048.2189.532 0 .985-.1095 1.36-.3284.386-.2293.73-.5421 1.032-.9382h.032v1.6731c-.365.2398-.735.4222-1.111.5473-.375.1356-.781.2033-1.219.2033-.553 0-1.069-.099-1.548-.2971-.48-.1981-.897-.4691-1.251-.8131-.344-.344-.615-.7506-.813-1.2197-.198-.4795-.297-.9955-.297-1.548 0-.5421.104-1.0477.312-1.5168.209-.4795.49-.8913.845-1.2353.354-.3544.766-.6306 1.235-.8287.48-.1981.99-.2971 1.532-.2971.397 0 .787.0625 1.173.1876.396.1251.761.3076 1.095.5473zm13.232-4.3314c-.24-.4065-.516-.7192-.829-.9382-.302-.2293-.704-.344-1.204-.344-.261 0-.511.0469-.751.1408-.229.0834-.438.2085-.625.3752-.177.1564-.318.3493-.422.5786-.105.2189-.157.4639-.157.7349 0 .2502.058.4743.172.6724.125.1876.276.3544.454.5004.177.1459.375.271.594.3753.219.1042.427.2032.625.2971l.782.344c.386.1668.746.3492 1.079.5473.344.1876.646.4117.907.6723.261.2502.464.5473.61.8913.156.3336.234.735.234 1.2041 0 .5212-.099 1.0059-.297 1.4542-.187.4378-.453.8183-.797 1.1414-.334.3232-.725.5786-1.173.7662-.448.1877-.928.2815-1.438.2815-.47 0-.907-.073-1.314-.2189-.407-.1459-.771-.3492-1.095-.6098-.312-.2711-.578-.5942-.797-.9695-.219-.3753-.375-.7923-.469-1.251l1.282-.3596c.042.3023.13.589.266.86.135.2606.302.49.5.688.209.1981.449.3545.72.4691.271.1147.563.172.875.172.313 0 .615-.0573.907-.172.292-.1146.547-.271.766-.4691.23-.2084.412-.4534.548-.7349.135-.2814.203-.589.203-.9226 0-.344-.063-.6358-.188-.8756s-.292-.4483-.5-.6255c-.198-.1772-.427-.3283-.688-.4534-.261-.1356-.527-.2659-.798-.391l-.719-.3127c-.344-.1564-.672-.3232-.985-.5004-.313-.1772-.589-.3805-.829-.6098-.229-.2293-.411-.4952-.547-.7975-.136-.3127-.203-.6828-.203-1.1102 0-.4587.088-.8704.266-1.2353.177-.3753.417-.6932.719-.9538.313-.2606.667-.4587 1.063-.5942.396-.146.813-.2189 1.251-.2189.657 0 1.251.1615 1.783.4847.531.3127.953.761 1.266 1.3448zm5.185-3.4088v6.4111l.031.0313c.26-.3545.558-.6255.891-.8131.344-.1877.746-.2815 1.204-.2815.511 0 .928.0886 1.251.2658.323.1668.579.3962.766.688.188.2919.313.6307.376 1.0164.073.3857.109.7923.109 1.2197v4.3626h-1.251v-4.1437c0-.2919-.015-.5733-.047-.8444-.021-.2814-.083-.5212-.187-.7193-.094-.2085-.245-.3753-.454-.5003-.208-.1251-.495-.1877-.86-.1877-.427 0-.766.0938-1.016.2815-.24.1772-.422.4065-.548.688-.114.2815-.187.5942-.218.9382-.032.344-.047.6776-.047 1.0007v3.487h-1.251V48.565Zm10.763 6.5049c-.386 0-.74.073-1.064.2189-.323.146-.599.344-.828.5942-.23.2398-.407.5265-.532.86-.125.3232-.188.6724-.188 1.0477 0 .3753.063.7297.188 1.0633.125.3232.302.6098.532.86.229.2502.505.4483.828.5942.324.1355.678.2033 1.064.2033.385 0 .74-.0678 1.063-.2033.323-.1459.599-.344.829-.5942.229-.2502.406-.5368.531-.86.125-.3336.188-.688.188-1.0633 0-.3753-.063-.7245-.188-1.0477-.125-.3335-.302-.6202-.531-.86-.23-.2502-.506-.4482-.829-.5942-.323-.1459-.678-.2189-1.063-.2189zm0 6.5987c-.532 0-1.032-.099-1.501-.2971-.47-.1981-.881-.4691-1.236-.8131-.344-.3544-.62-.7662-.828-1.2353-.199-.4691-.298-.9747-.298-1.5168 0-.542.099-1.0476.298-1.5167.198-.4691.469-.8809.813-1.2353.354-.3545.766-.6307 1.235-.8288.469-.2085.975-.3127 1.517-.3127.542 0 1.047.1042 1.516.3127.47.1981.876.4743 1.22.8288.355.3544.631.7662.829 1.2353.198.4691.297.9747.297 1.5167 0 .5421-.104 1.0477-.313 1.5168-.198.4691-.474.8809-.829 1.2353-.344.344-.75.615-1.219.8131-.469.1981-.97.2971-1.501.2971zm7.31-6.5049h.031c.303-.4065.673-.714 1.111-.9225.438-.2189.912-.3284 1.423-.3284.542 0 1.026.1095 1.454.3284.438.2085.808.4951 1.11.86.302.3544.537.7662.704 1.2353.166.4691.25.959.25 1.4698 0 .5213-.084 1.0164-.25 1.4855-.157.4691-.386.8809-.688 1.2353-.303.3545-.673.6359-1.111.8444-.437.1981-.933.2971-1.485.2971-.5 0-.969-.1042-1.407-.3127-.438-.2189-.808-.5265-1.111-.9226h-.031v5.1601h-1.251V54.1161h1.251zm2.33-.0938c-.365 0-.693.073-.985.2189-.292.146-.542.344-.751.5942-.208.2398-.37.5212-.484.8444-.115.3127-.172.6411-.172.9851 0 .3649.052.7141.156 1.0477.104.3336.255.6307.453.8913.209.2606.459.4691.751.6254.302.1564.652.2346 1.048.2346.406 0 .761-.073 1.063-.2189.302-.1564.558-.3597.766-.6099.209-.2606.365-.5577.469-.8912.105-.3336.157-.6881.157-1.0633 0-.3649-.058-.7089-.172-1.0321-.115-.3231-.277-.6046-.485-.8443-.209-.2398-.469-.4275-.782-.563-.302-.1459-.646-.2189-1.032-.2189z"/>
  </g>
  <defs>
    <clipPath id="a">
      <path fill="#fff" d="M0 0h70.7089v63.638H0z"/>
    </clipPath>
    <clipPath id="b">
      <path fill="#fff" d="M0 .418213h70.7229v104.787H0z"/>
    </clipPath>
    <clipPath id="c">
      <path fill="#fff" d="M80.2637 0h89.819504v80.837502H80.2637z"/>
    </clipPath>
  </defs>
</svg>
